<svg
  version="1.1"
  id="full-logo-svg"
  xmlns:svg="http://www.w3.org/2000/svg"
  xmlns="http://www.w3.org/2000/svg"
  xmlns:xlink="http://www.w3.org/1999/xlink"
  x="0px"
  y="0px"
  viewBox="0 0 130 35"
  xml:space="preserve"
>
  <style type="text/css">
    .st0 {
      fill: #035096;
    }
  </style>
  <symbol id="full-logo" viewBox="0 0 130 35">
    <path
      id="symbol-ER"
      class="st0"
      d="M34.5,10.1h21.6v5H34.5C34.5,15.2,34.5,10.1,34.5,10.1z M4.4,10.1h24.7v5H4.4v4.7h24.7V25H4.4
	v5.3h30V19.9h26.2V4.7H4.4V10.1z"
    />
    <path
      id="symbol-E"
      class="st0"
      d="M63.5,19.9H74v-1.6h-9v-1.5h9v-1.6h-9v-1.5h9v-1.5H63.5V19.9z"
    />
    <path
      id="symbol-S"
      class="st0"
      d="M76.2,19.9h10.6v-1.7h-9v-4.3h9v-1.7H76.2V19.9z"
    />
    <path
      id="symbol-U"
      class="st0"
      d="M89.7,16.9h9v1.3h-9v1.7h10.6v-7.7h-1.6v3h-7.3c0-1,0-2,0-3c0,0-1.3,0-1.7,0
	C89.7,12.2,89.7,16.9,89.7,16.9z"
    />
    <path
      id="symbol-R"
      class="st0"
      d="M104,13.8h7.4v1.4H104V13.8z M102.4,19.9h1.6v-3.1h9v-4.6h-10.6V19.9z"
    />
    <path
      id="symbol-S2"
      class="st0"
      d="M115,19.9h10.6v-1.7h-9v-4.3h9v-1.7H115V19.9z"
    />
    <path
      id="symbol-L"
      class="st0"
      d="M37.2,30.3c1,0,2.2,0,2.2,0s5.9-6,6.2-6h0.6v6h1.6v-7.6h-2.9C44.9,22.7,37.2,30.3,37.2,30.3z"
    />
    <path
      id="symbol-E2"
      class="st0"
      d="M50,30.3h10.6v-1.6h-9v-1.4h9v-1.6h-9v-1.4h9v-1.6H50V30.3z"
    />
    <path
      id="symbol-K"
      class="st0"
      d="M63.5,30.3H65v-3.4l1-0.4l5.2,3.8H74l-6.5-4.5l6.5-3h-3.3L65,25.3v-2.5h-1.6
	C63.5,22.7,63.5,30.3,63.5,30.3z"
    />
    <path
      id="symbol-T"
      class="st0"
      d="M76.2,30.3h1.6v-6h2.9v6h1.6v-6h3v6h1.6v-7.6H76.2V30.3z"
    />
    <path
      id="symbol-R2"
      class="st0"
      d="M91.2,24.3h7.5v1.4h-7.4L91.2,24.3L91.2,24.3z M89.7,30.3h1.6v-3h9v-4.6H89.7V30.3z"
    />
    <path
      id="symbol-O"
      class="st0"
      d="M104,24.3h7.3v4.4H104V24.3z M102.4,30.3H113v-7.6h-10.6V30.3z"
    />
  </symbol>
  <use xlink:href="#full-logo" />
</svg>
