<?xml version="1.0" encoding="UTF-8" standalone="no"?>
<svg
   xmlns:dc="http://purl.org/dc/elements/1.1/"
   xmlns:cc="http://creativecommons.org/ns#"
   xmlns:rdf="http://www.w3.org/1999/02/22-rdf-syntax-ns#"
   xmlns:svg="http://www.w3.org/2000/svg"
   xmlns="http://www.w3.org/2000/svg"
   xmlns:sodipodi="http://sodipodi.sourceforge.net/DTD/sodipodi-0.dtd"
   xmlns:inkscape="http://www.inkscape.org/namespaces/inkscape"
   viewBox="0 0 941.38405 151.1788"
   height="151.1788"
   width="941.38409"
   xml:space="preserve"
   id="svg2"
   version="1.1"
   sodipodi:docname="logo.svg"
   inkscape:version="0.92.1 r15371"><sodipodi:namedview
     pagecolor="#ffffff"
     bordercolor="#666666"
     borderopacity="1"
     objecttolerance="10"
     gridtolerance="10"
     guidetolerance="10"
     inkscape:pageopacity="0"
     inkscape:pageshadow="2"
     inkscape:window-width="1920"
     inkscape:window-height="1018"
     id="namedview3690"
     showgrid="false"
     inkscape:zoom="1.5458283"
     inkscape:cx="558.53756"
     inkscape:cy="-30.68518"
     inkscape:window-x="-8"
     inkscape:window-y="-8"
     inkscape:window-maximized="1"
     inkscape:current-layer="svg2" /><metadata
     id="metadata8"><rdf:RDF><cc:Work
         rdf:about=""><dc:format>image/svg+xml</dc:format><dc:type
           rdf:resource="http://purl.org/dc/dcmitype/StillImage" /><dc:title></dc:title></cc:Work></rdf:RDF></metadata><defs
     id="defs6" /><g
     transform="matrix(1.3333333,0,0,-1.3333333,53.306817,366.68876)"
     id="g10"><g
       transform="matrix(0.1,0,0,0.1,-16.010834,16.010834)"
       id="g12"><path
         id="path16"
         style="fill:#ee2722;fill-opacity:1;fill-rule:evenodd;stroke:none"
         d="m -125.4708,2575.7674 h 1378.899 c 62.73,0 114.18,-52.17 114.18,-115.91 v -73.71 h -138.7 v 102.07 h -1097.32 v -930.149 l 646.67,-2.086 c -95.19,46.345 -163.38,108.605 -189.8,178.895 v 122.68 c 56.09,-149.54 300.25,-262.727 591.45,-262.727 273.61,0 505.61,99.867 579.31,235.977 v -122.47 c -63.06,-116.429 -325.69,-237.949 -505.79,-237.949 h -1378.899 c -62.75,0 -114.222,52.059 -114.222,115.793 v 873.676 c 0,63.74 51.472,115.91 114.222,115.91 z m 1884.689,-675.72 c -73.83,-136.11 -305.84,-235.86 -579.31,-235.86 -291.1,0 -535.19,112.97 -591.45,262.62 v 118.3 c 56.26,-149.54 300.35,-262.63 591.45,-262.63 273.61,0 505.61,99.87 579.31,235.87 z m -205.88,37.91 c -29.68,-15.74 -63,-29.37 -99.41,-40.51 -79.91,30.51 -173.74,48.2 -274.02,48.2 -101.07,0 -195.52,-18.01 -275.85,-49.05 -36.5,11.26 -69.46,24.89 -98.41,40.73 95.44,60.49 228,98.09 374.26,98.09 145.78,0 277.95,-37.38 373.43,-97.46 z m 92.98,67.67 c -14.48,-14.89 -31.03,-28.73 -49.57,-41.45 -96.37,77.91 -247.46,128.3 -416.84,128.3 -169.37,0 -320.41,-50.39 -416.73,-128.3 -18.3,13.34 -34.32,27.83 -48.08,43.33 88.58,103.73 263.82,174.74 464.81,174.74 202.18,0 378.33,-71.86 466.41,-176.62 z m -466.41,319.28 c 249.25,0 458.93,-109.03 512.8,-254.5 -6.91,-13.96 -15.24,-27.5 -25.15,-40.29 -78.29,120.05 -267.51,205.13 -487.65,205.13 -217.85,0 -405.35,-83.31 -485.12,-201.49 -9.84,14.68 -17.79,30.31 -23.79,46.44 59.46,140.59 265.34,244.71 508.91,244.71"
         inkscape:connector-curvature="0" /><path
         id="path18"
         style="fill:#ee2722;fill-opacity:1;fill-rule:evenodd;stroke:none"
         d="m 3424.0482,2465.4874 c -121.04,73.53 -358.01,115.81 -620.83,114.34 l -743.74,-4.06 v -1105.379 l 705.77,4.063 c 1.47,0 2.76,0 3.5,0 0.89,0 1.96,0 3.64,0 41.08,0 99.76,1.769 175.78,5.195 75.92,3.453 200.76,11.047 284.76,30.926 490.12,116.325 693.18,650.435 191.12,954.915 z m -699.2,-854.01 -249.71,-4.04 v 815.06 l 273.41,4.04 c 25.4,0.32 140.84,-9.06 171.1,-14.87 251.47,-48.55 355.04,-107.78 355.04,-387.5 0,-373.11 -234.41,-407.47 -549.84,-412.69"
         inkscape:connector-curvature="0" /><path
         id="path20"
         style="fill:#ee2722;fill-opacity:1;fill-rule:evenodd;stroke:none"
         d="m 5020.7682,2575.7674 h 297.45 l -666.72,-489.95 682.34,-615.429 h -480.84 l -529.3,464.329 v -464.329 h -395.27 v 1105.379 h 391.09 v -519.11 l 701.25,519.11"
         inkscape:connector-curvature="0" /><path
         id="path22"
         style="fill:#ee2722;fill-opacity:1;fill-rule:evenodd;stroke:none"
         d="m 6265.9482,2590.0574 c 204.94,0 395.72,-34.18 554.74,-92.71 l -66.09,-190.65 h -51.33 c -110.01,85.08 -263.42,138.69 -427.16,138.69 -315.68,0 -572.96,-195.14 -572.96,-434.44 0,-239.21 257.28,-434.453 572.96,-434.453 165.42,-2.711 349.63,35.313 482.78,97.983 h 40.91 l -49.15,-141.417 c -145.12,-48.629 -311.93,-76.844 -488.77,-76.844 -756.25,0 -999,276.791 -999,581.081 0,304.49 450.58,552.76 1003.07,552.76"
         inkscape:connector-curvature="0" /></g></g></svg>