<?xml version="1.0" encoding="utf-8"?>
<!-- Generator: Adobe Illustrator 22.1.0, SVG Export Plug-In . SVG Version: 6.00 Build 0)  -->
<svg version="1.1" id="Layer_1" xmlns="http://www.w3.org/2000/svg" xmlns:xlink="http://www.w3.org/1999/xlink" x="0px" y="0px"
	 viewBox="0 0 90.5 28.7" style="enable-background:new 0 0 90.5 28.7;" xml:space="preserve">
<style type="text/css">
	.st0{fill:#D91F24;}
	.st1{fill:#2C2B2A;}
</style>
<g>
	<path class="st0" d="M27.9,0.8c0,0.1,0,0.2,0,0.3c0,8.8,0,17.6,0,26.4c0,0.1,0,0.2,0,0.3c-9,0-17.9,0-26.9,0c0-0.1,0-0.2,0-0.3
		C1,18.7,1,9.9,1,1.2C1,1.1,1,1,1,0.9C10,0.8,19,0.8,27.9,0.8z M22.2,4.7c-0.5,0-0.9,0-1.4,0c-0.4,0-0.5,0.1-0.7,0.4
		c-1.5,2.9-3.4,5.4-5.5,7.9c-2.6,3.1-5.3,6-8.1,8.9C6,22.4,5.5,23,5,23.5c-0.1,0.1-0.2,0.2,0,0.3c0.1,0.1,0.2,0,0.2-0.1
		c0.7-0.7,1.4-1.3,2.1-2c2.8-2.6,5.6-5.3,8.6-7.7c2.5-2,5.1-4,8-5.5C24,8.4,24,8.4,24,8.3c0-1.1,0-2.3,0-3.4c0-0.2-0.1-0.2-0.2-0.2
		C23.3,4.7,22.8,4.7,22.2,4.7z M17.6,4.7c-1.3,0-2.5,0-3.8,0c-0.1,0-0.1,0.1-0.1,0.2c0,0.4-0.1,0.8-0.1,1.1c-0.2,1.8-0.5,3.7-1,5.4
		c-0.6,2-1.5,3.8-2.5,5.6c-0.1,0.1-0.1,0.2,0,0.3s0.2,0,0.2-0.1c2.4-3.1,4.5-6.3,6.1-9.8C16.8,6.6,17.2,5.6,17.6,4.7z M24.1,13.2
		c0-0.6,0-1.1,0-1.7c0-0.2,0-0.2-0.2-0.1c-0.6,0.3-1.2,0.5-1.9,0.8c-3.7,1.7-7.2,3.9-10.4,6.4c-0.1,0.1-0.3,0.1-0.2,0.3
		s0.2,0,0.3-0.1c2.5-1.5,5.2-2.5,8.1-3.1c1.3-0.2,2.7-0.4,4-0.5c0.2,0,0.2-0.1,0.2-0.2C24.1,14.3,24.1,13.7,24.1,13.2z M11.5,7
		c0-0.5-0.1-1.3-0.1-2.2c0-0.2-0.1-0.2-0.2-0.2c-0.9,0-1.9,0-2.8,0C8,4.6,8,4.6,8.2,5c1.5,3,2.2,6.2,2.1,9.5c0,0.1,0,0.3,0,0.4
		c0,0.1,0,0.1,0.1,0.2c0.1,0,0.1,0,0.2-0.1c0-0.1,0.1-0.2,0.1-0.3C11.3,12.3,11.5,9.9,11.5,7z M24.1,20.8
		C24.1,20.7,24.1,20.7,24.1,20.8c0-1.1,0-2.2,0-3.2c0-0.1,0-0.2-0.2-0.2c-1.3-0.1-2.6-0.1-3.9-0.1c-2.1,0.1-4.1,0.3-6.1,1
		c-0.1,0-0.3,0-0.3,0.2s0.2,0.1,0.3,0.1c3.4-0.2,6.7,0.5,9.8,2.1C23.8,20.7,24,20.7,24.1,20.8z"/>
	<path class="st1" d="M89.3,9.7c-0.1,0-0.2,0-0.3,0c-3.2,0-6.4,0-9.6,0c-0.2,0-0.3,0.1-0.3,0.3c0,0.9,0,1.9,0,2.8
		c0,0.2,0.1,0.2,0.2,0.2c2.9,0,5.8,0,8.7,0c0.2,0,0.3,0,0.2,0.2c0,0.5,0,1,0,1.5c0,0.2-0.1,0.2-0.2,0.2c-2.9,0-5.8,0-8.7,0
		c-0.2,0-0.3,0-0.3,0.3c0,1.8,0,3.6,0,5.5c0,0.2,0,0.2-0.2,0.2c-1.3,0-2.6,0-3.9,0c-0.1,0-0.2-0.1-0.3-0.2c-0.7-0.8-0.9-1.8-1.1-2.8
		c-0.1-0.7-0.1-1.3-0.1-2c0-2.6,0-5.3,0-7.9c0-0.2,0.1-0.2,0.3-0.2c5.1,0,10.2,0,15.4,0c0.1,0,0.2,0,0.2,0C89.3,8.4,89.3,9,89.3,9.7
		z"/>
	<path class="st1" d="M72,20.9c-0.1,0-0.1,0-0.2,0c-1.7,0-3.5,0-5.2,0c-0.2,0-0.2,0-0.4-0.2c-1.2-1.5-2.3-3-3.5-4.5
		c-0.7-0.9-1.6-1.3-2.8-1.3c-0.3,0-0.6,0-0.8,0c-0.2,0-0.2,0.1-0.2,0.2c0,1.8,0,3.6,0,5.5c0,0.2-0.1,0.3-0.3,0.3c-1.3,0-2.5,0-3.8,0
		c-0.2,0-0.3-0.1-0.4-0.2c-0.6-0.8-0.9-1.7-1-2.6c-0.1-0.7-0.2-1.4-0.2-2.1c0-2.6,0-5.3,0-7.9c0-0.2,0.1-0.2,0.2-0.2
		c1.7,0,3.5,0,5.2,0c0.2,0,0.2,0.1,0.2,0.2c0,1.6,0,3.2,0,4.8c0,0.2,0,0.2,0.2,0.2c0.6,0,1.3,0,1.9,0c0.9-0.1,1.7-0.5,2.2-1.2
		c1-1.3,2-2.6,3-3.8c0.1-0.1,0.2-0.2,0.3-0.2c1.8,0,3.6,0,5.4,0h0.1c-0.2,0.3-0.4,0.5-0.6,0.8c-1.5,1.9-2.9,3.8-4.4,5.6
		c-0.1,0.1-0.1,0.2,0,0.3c1.6,2.1,3.2,4.1,4.8,6.2C71.9,20.7,72,20.8,72,20.9z"/>
	<path class="st1" d="M43.4,7.7c2.6,0,5.1,0,7.7,0c0.2,0,0.2,0.1,0.2,0.2c0,0.5,0,1,0,1.5c0,0.2,0,0.2-0.2,0.2c-3.2,0-6.4,0-9.6,0
		c-0.1,0-0.1,0-0.2,0c-0.2,0-0.2,0-0.2,0.2c0,1,0,1.9,0,2.9c0,0.2,0.1,0.2,0.2,0.2c2.9,0,5.8,0,8.7,0c0.3,0,0.3,0,0.3,0.3
		c0,0.5,0,1,0,1.4c0,0.2,0,0.2-0.2,0.2c-2.9,0-5.8,0-8.7,0c-0.2,0-0.3,0.1-0.3,0.3c0,1.2,0,2.3,0,3.5c0,0.2,0.1,0.3,0.3,0.3
		c3.2,0,6.4,0,9.6,0c0.2,0,0.3,0.1,0.3,0.3c0,0.5,0,1,0,1.4c0,0.2-0.1,0.2-0.2,0.2c-4.6,0-9.2,0-13.8,0c-0.3,0-0.5-0.1-0.7-0.4
		c-0.6-0.8-0.8-1.8-1-2.7c-0.1-0.7-0.1-1.3-0.1-2c0-2.6,0-5.2,0-7.7c0-0.2,0.1-0.2,0.3-0.2C38.2,7.7,40.8,7.7,43.4,7.7z"/>
</g>
</svg>
