<svg
  version="1.1"
  id="block-logo-svg"
  xmlns:svg="http://www.w3.org/2000/svg"
  xmlns="http://www.w3.org/2000/svg"
  xmlns:xlink="http://www.w3.org/1999/xlink"
  x="0px"
  y="0px"
  viewBox="0 0 130 45.1"
  xml:space="preserve"
>
  <style type="text/css">
    .st0 {
      fill: #2874a6;
    }
    .st1 {
      font-family: "Arial";
      font-size: 6.6px;
    }
  </style>
  <symbol id="block-logo" viewBox="0 0 130 45">
    <path
      id="symbol-ER"
      class="st0"
      d="M34.5,10.4h21.6v5H34.5C34.5,15.5,34.5,10.4,34.5,10.4z M4.4,10.4h24.7v5H4.4v4.7h24.7v5.2H4.4
    v5.3h30V20.2h26.2V5H4.4V10.4z"
    />
    <path
      id="symbol-E"
      class="st0"
      d="M63.5,20.2H74v-1.6h-9v-1.5h9v-1.6h-9V14h9v-1.5H63.5V20.2z"
    />
    <path
      id="symbol-S"
      class="st0"
      d="M76.2,20.2h10.6v-1.7h-9v-4.3h9v-1.7H76.2V20.2z"
    />
    <path
      id="symbol-U"
      class="st0"
      d="M89.7,17.2h9v1.3h-9v1.7h10.6v-7.7h-1.6v3h-7.3c0-1,0-2,0-3c0,0-1.3,0-1.7,0
    C89.7,12.5,89.7,17.2,89.7,17.2z"
    />
    <path
      id="symbol-R"
      class="st0"
      d="M104,14.1h7.4v1.4H104V14.1z M102.4,20.2h1.6v-3.1h9v-4.6h-10.6V20.2z"
    />
    <path
      id="symbol-S2"
      class="st0"
      d="M115,20.2h10.6v-1.7h-9v-4.3h9v-1.7H115V20.2z"
    />
    <path
      id="symbol-L"
      class="st0"
      d="M37.2,30.6c1,0,2.2,0,2.2,0s5.9-6,6.2-6h0.6v6h1.6V23h-2.9C44.9,23,37.2,30.6,37.2,30.6z"
    />
    <path
      id="symbol-E2"
      class="st0"
      d="M50,30.6h10.6V29h-9v-1.4h9V26h-9v-1.4h9V23H50V30.6z"
    />
    <path
      id="symbol-K"
      class="st0"
      d="M63.5,30.6H65v-3.4l1-0.4l5.2,3.8H74l-6.5-4.5l6.5-3h-3.3L65,25.6v-2.5h-1.6C63.5,23,63.5,30.6,63.5,30.6z"
    />
    <path
      id="symbol-T"
      class="st0"
      d="M76.2,30.6h1.6v-6h2.9v6h1.6v-6h3v6h1.6V23H76.2V30.6z"
    />
    <path
      id="symbol-R2"
      class="st0"
      d="M91.2,24.6h7.5V26h-7.4L91.2,24.6L91.2,24.6z M89.7,30.6h1.6v-3h9V23H89.7V30.6z"
    />
    <path
      id="symbol-O"
      class="st0"
      d="M104,24.6h7.3V29H104V24.6z M102.4,30.6H113V23h-10.6V30.6z"
    />
    <text transform="matrix(1.0875 0 0 1 4 40.4814)" class="st0 st1">
      ПРОИЗВОДСТВО ЭЛЕКТРОЩИТОВ
    </text>
  </symbol>
  <use xlink:href="#block-logo" />
</svg>
